<svg xmlns="http://www.w3.org/2000/svg" width="26.592" height="24" viewBox="0 0 26.592 24"><defs><style>.a{fill:#fff;}</style></defs><path class="a" d="M4.379,1.975a3.645,3.645,0,0,1-.486,1.818L-.942,12.172A3.624,3.624,0,0,1-4.08,13.98h-9.674a3.624,3.624,0,0,1-3.136-1.808l-4.839-8.379a3.629,3.629,0,0,1,0-3.621l4.839-8.38a3.623,3.623,0,0,1,3.136-1.812H-4.08A3.624,3.624,0,0,1-.942-8.208l.893,1.551-5.9,10.129a.415.415,0,0,1-.566.154.4.4,0,0,1-.154-.154L-8.556.238A.416.416,0,0,0-9.121.08a.409.409,0,0,0-.158.158L-11.5,4.052a.418.418,0,0,1-.572.151.424.424,0,0,1-.151-.151l-1.2-2.061A.42.42,0,0,0-14,1.841a.42.42,0,0,0-.151.15l-.767,1.326a.414.414,0,0,0,0,.429l2.694,4.611a.414.414,0,0,0,.564.159.407.407,0,0,0,.159-.159l2.227-3.814a.413.413,0,0,1,.565-.153.4.4,0,0,1,.154.153L-6.636,7.8a.416.416,0,0,0,.566.154A.416.416,0,0,0-5.915,7.8L1.21-4.469,3.9.188a3.591,3.591,0,0,1,.481,1.787" transform="translate(22.213 10.02)"/></svg>