<svg xmlns="http://www.w3.org/2000/svg" width="226.389" height="38.197" viewBox="0 0 226.389 38.197"><defs><style>.a{fill:#fff;}</style></defs><path class="a" d="M34.315,0H25.284L11.93-23.446V0H2.847V-37.68H11.93L25.258-14.233V-37.68h9.058ZM67.228-7.039H54.78L52.607,0H42.9L56.721-37.68h8.54L79.184,0H69.428ZM56.954-14.052h8.1L60.991-27.121ZM113.7-30.667H102.392V0H93.309V-30.667h-11.1V-37.68H113.7Zm38.684-7.013v24.663A14.174,14.174,0,0,1,150.6-5.758a11.568,11.568,0,0,1-5.124,4.671,18.051,18.051,0,0,1-7.893,1.6q-6.884,0-10.843-3.571T122.7-12.836V-37.68h9.135v25.025q.155,6.185,5.745,6.185a5.561,5.561,0,0,0,4.27-1.553q1.449-1.553,1.449-5.046V-37.68Zm24.968,24.352h-4.917V0h-9.083V-37.68h14.829q6.7,0,10.481,2.973a10.073,10.073,0,0,1,3.778,8.4,12.234,12.234,0,0,1-1.592,6.515,11.3,11.3,0,0,1-4.982,4.188L193.735-.389V0H184Zm-4.917-6.987h5.745a5.157,5.157,0,0,0,3.895-1.362,5.265,5.265,0,0,0,1.307-3.8,5.327,5.327,0,0,0-1.32-3.827,5.109,5.109,0,0,0-3.882-1.388h-5.745ZM226.6-15.993H212.311v9.006h16.873V0H203.227V-37.68h26.008v7.013H212.311v7.945H226.6Z" transform="translate(-2.847 37.68)"/></svg>